<!--?xml version="1.0" encoding="utf-8"?-->
<!-- Generator: Adobe Illustrator 24.1.1, SVG Export Plug-In . SVG Version: 6.00 Build 0)  -->
<svg version="1.1" id="_x31_0" xmlns="http://www.w3.org/2000/svg" xmlns:xlink="http://www.w3.org/1999/xlink" x="0px" y="0px" viewBox="0 0 512 512" style="width: 256px; height: 256px; opacity: 1;" xml:space="preserve">
<style type="text/css">
	.st0{fill:#374149;}
</style>
<g>
	<path class="st0" d="M453.918,182.018l-33.402,33.402v226.121c0,4.426-3.59,7.93-7.934,7.93H41.418
		c-4.426,0-8.019-3.504-8.019-7.93V70.373c0-4.34,3.594-7.93,8.019-7.93h370.246h0.418l27.972-28.058
		c-0.082-0.082-0.168-0.082-0.25-0.168c-4.926-3.254-11.023-5.176-17.367-5.176H31.484c-8.687,0-16.621,3.508-22.214,9.27
		C3.59,43.904,0,51.838,0,60.522v390.87c0,8.684,3.59,16.699,9.27,22.379c5.594,5.598,13.527,9.187,22.214,9.187h390.954
		c8.598,0,16.613-3.59,22.293-9.187c5.762-5.68,9.187-13.695,9.187-22.379V293.201l0.114-111.07l-0.114,0.114V182.018z" style="fill: rgb(75, 75, 75);"></path>
	<polygon class="st0" points="478.782,44.155 478.422,43.792 478.309,43.682 243.114,278.354 147.285,182.525 113.778,216.033 
		113.707,216.104 113.594,216.217 243.114,345.728 511.621,77.744 511.886,77.483 512,77.369 	" style="fill: rgb(75, 75, 75);"></polygon>
</g>
</svg>
