<!--?xml version="1.0" encoding="utf-8"?-->
<!-- Generator: Adobe Illustrator 19.1.1, SVG Export Plug-In . SVG Version: 6.00 Build 0)  -->
<svg version="1.1" id="_x31_0" xmlns="http://www.w3.org/2000/svg" xmlns:xlink="http://www.w3.org/1999/xlink" x="0px" y="0px" viewBox="0 0 512 512" style="width: 256px; height: 256px; opacity: 1;" xml:space="preserve">
<style type="text/css">
	.st0{fill:#374149;}
</style>
<g>
	<path class="st0" d="M412.739,311.031c0-12.023-3.894-23.102-10.523-32.086c12.277-9.922,20.148-25.109,20.148-42.094
		c0-29.898-24.344-54.242-54.242-54.242h-31.274h-68.656h-40.523l-3.794-0.015l10.352-102.566
		c3.805-37.856-22.59-72.551-60.062-78.965C152.008-2.747,129.848,3.8,113.25,18.901C96.653,33.999,88.141,55.519,89.852,77.89
		l12.402,161.274l0.687-0.043l12.106,157.508C115.387,451.214,159.45,512,218.27,512h86.926c35.118,0,64.508-26.351,68.313-61.258
		l2.312-21.176c13.902-9.836,23.016-26.008,23.016-44.317c0-11.082-3.34-21.39-9.027-29.988
		C403.669,345.421,412.739,329.253,412.739,311.031z M151.372,35.73c5.434-1.566,11.226-1.914,17.019-0.918
		c19.848,3.379,33.793,21.73,31.782,41.754l-8.36,82.578c-0.781,7.684-6.457,13.965-14.019,15.516l-38.738,7.949h-6.813
		l-8.258-107.328c-0.894-11.809,3.594-23.102,12.321-31.098c4.335-3.953,9.402-6.782,14.832-8.386
		C151.215,35.773,151.294,35.753,151.372,35.73z M368.122,256.832h-7.785h-1.84H283.29c-3.035,0-5.625,2.191-6.129,5.187
		l-1.996,11.922l-1.653,9.871c-0.636,3.79,2.286,7.238,6.13,7.238h76.93h1.926c5.73,0,10.95,2.442,14.586,6.332
		c3.379,3.551,5.434,8.344,5.434,13.649c0,6.844-3.465,12.918-8.726,16.469v0.043c-2.695,1.835-5.863,3.034-9.242,3.378
		c-0.683,0.043-1.366,0.086-2.05,0.086h-6.289h-7.574h-73.797c-3.035,0-5.626,2.187-6.129,5.179l-0.794,4.699l-1.199,7.23
		L261.047,358c-0.629,3.785,2.294,7.23,6.13,7.23h77.457c1.285,0,2.57,0.129,3.766,0.382c7.656,1.454,13.774,7.274,15.614,14.801
		c0.386,1.543,0.602,3.168,0.602,4.836c0,3.164-0.731,6.203-2.098,8.856c-2.781,5.644-8.214,9.797-14.671,10.863
		c-1.028,0.172-2.098,0.258-3.211,0.258h-0.554h-87.536c-1.968,0-3.648,1.422-3.972,3.363l-2.305,13.75l-0.129,0.812l-1.52,9.055
		c-0.637,3.789,2.286,7.242,6.129,7.242h77.246l8.321,0.016l-0.813,7.554c-1.922,17.539-16.684,30.758-34.305,30.758H218.27
		c-38.246,0-69-44.79-69-81.832l-12.106-158.067l-1.629-21.046h50.48h17.195h17.196h47.785h99.93c0.942,0,1.84,0.042,2.738,0.172
		c9.75,1.367,17.282,9.754,17.282,19.847c0,7.489-4.195,14.074-10.352,17.454C374.922,255.933,371.63,256.832,368.122,256.832z" style="fill: rgb(75, 75, 75);"></path>
</g>
</svg>
