<!--?xml version="1.0" encoding="utf-8"?-->
<!-- Generator: Adobe Illustrator 18.0.0, SVG Export Plug-In . SVG Version: 6.00 Build 0)  -->

<svg version="1.1" id="_x31_0" xmlns="http://www.w3.org/2000/svg" xmlns:xlink="http://www.w3.org/1999/xlink" x="0px" y="0px" viewBox="0 0 512 512" style="width: 256px; height: 256px; opacity: 1;" xml:space="preserve">
<style type="text/css">
	.st0{fill:#374149;}
</style>
<g>
	<path class="st0" d="M256,0C114.617,0,0,114.614,0,256c0,141.383,114.617,256,256,256c141.386,0,256-114.617,256-256
		C512,114.614,397.386,0,256,0z M256,448c-105.867,0-192-86.133-192-192c0-105.871,86.133-192,192-192c105.871,0,192,86.129,192,192
		C448,361.867,361.871,448,256,448z" style="fill: rgb(75, 75, 75);"></path>
	<path class="st0" d="M89.946,243.199c-0.391,4.218-0.649,8.481-0.649,12.801s0.258,8.582,0.649,12.801h34.457
		c-0.527-4.203-0.886-8.457-0.886-12.801s0.359-8.598,0.886-12.801H89.946z" style="fill: rgb(75, 75, 75);"></path>
	<path class="st0" d="M422.058,243.199h-34.457c0.527,4.203,0.886,8.457,0.886,12.801s-0.359,8.598-0.886,12.801h34.457
		c0.394-4.218,0.649-8.481,0.649-12.801S422.453,247.418,422.058,243.199z" style="fill: rgb(75, 75, 75);"></path>
	<path class="st0" d="M268.801,124.402V89.942c-4.218-0.391-8.477-0.645-12.801-0.645c-4.32,0-8.578,0.254-12.797,0.645v34.461
		c4.203-0.527,8.453-0.886,12.797-0.886S264.598,123.875,268.801,124.402z" style="fill: rgb(75, 75, 75);"></path>
	<path class="st0" d="M243.203,387.598v34.461c4.218,0.391,8.477,0.645,12.797,0.645c4.324,0,8.582-0.254,12.801-0.645v-34.461
		c-4.203,0.527-8.457,0.886-12.801,0.886S247.406,388.125,243.203,387.598z" style="fill: rgb(75, 75, 75);"></path>
	<path class="st0" d="M191.73,116.11c-4.641-7.524-14.48-10-22-5.363c-7.602,4.562-10,14.402-5.442,21.922l57.762,95.359
		c6.879-8.32,16.719-14.078,28-15.519L191.73,116.11z" style="fill: rgb(75, 75, 75);"></path>
	<path class="st0" d="M343.57,299.707l-44.879-33.282c-2.562,10.883-9.281,20.16-18.402,26.242l44.161,32.718
		c2.882,2.161,6.242,3.199,9.519,3.199c4.882,0,9.762-2.238,12.882-6.476C352.129,314.988,350.61,304.988,343.57,299.707z" style="fill: rgb(75, 75, 75);"></path>
	<path class="st0" d="M256,234.481c-11.883,0-21.516,9.633-21.516,21.519c0,11.886,9.633,21.519,21.516,21.519
		c11.886,0,21.523-9.633,21.523-21.519C277.523,244.114,267.886,234.481,256,234.481z" style="fill: rgb(75, 75, 75);"></path>
</g>
</svg>
